  0
SECTION
  2
BLOCKS
  0
ENDSEC
  0
SECTION
  2
ENTITIES
  0
LINE
  8
0
 10
-5.142
 11
-5.142
 20
-3.709
 21
3.709
  0
LINE
  8
0
 10
-5.142
 11
-3.908
 20
3.709
 21
5.847
  0
LINE
  8
0
 10
-3.908
 11
-3.907
 20
5.847
 21
5.845
  0
LINE
  8
0
 10
-3.907
 11
-3.844
 20
5.845
 21
5.934
  0
LINE
  8
0
 10
-3.844
 11
-3.762
 20
5.934
 21
6.025
  0
LINE
  8
0
 10
-3.762
 11
-3.668
 20
6.025
 21
6.106
  0
LINE
  8
0
 10
-3.668
 11
-3.565
 20
6.106
 21
6.175
  0
LINE
  8
0
 10
-3.565
 11
-3.454
 20
6.175
 21
6.229
  0
LINE
  8
0
 10
-3.454
 11
-3.337
 20
6.229
 21
6.27
  0
LINE
  8
0
 10
-3.337
 11
-3.217
 20
6.27
 21
6.296
  0
LINE
  8
0
 10
-3.217
 11
-3.109
 20
6.296
 21
6.306
  0
LINE
  8
0
 10
-3.109
 11
-3.11
 20
6.306
 21
6.308
  0
LINE
  8
0
 10
-3.11
 11
-0.642
 20
6.308
 21
6.308
  0
LINE
  8
0
 10
-0.642
 11
5.783
 20
6.308
 21
2.598
  0
LINE
  8
0
 10
5.783
 11
7.017
 20
2.598
 21
0.461
  0
LINE
  8
0
 10
7.017
 11
7.015
 20
0.461
 21
0.461
  0
LINE
  8
0
 10
7.015
 11
7.061
 20
0.461
 21
0.362
  0
LINE
  8
0
 10
7.061
 11
7.099
 20
0.362
 21
0.245
  0
LINE
  8
0
 10
7.099
 11
7.122
 20
0.245
 21
0.123
  0
LINE
  8
0
 10
7.122
 11
7.13
 20
0.123
 21
0
  0
LINE
  8
0
 10
7.13
 11
7.122
 20
0
 21
-0.123
  0
LINE
  8
0
 10
7.122
 11
7.099
 20
-0.123
 21
-0.245
  0
LINE
  8
0
 10
7.099
 11
7.061
 20
-0.245
 21
-0.362
  0
LINE
  8
0
 10
7.061
 11
7.015
 20
-0.362
 21
-0.461
  0
LINE
  8
0
 10
7.015
 11
7.017
 20
-0.461
 21
-0.461
  0
LINE
  8
0
 10
7.017
 11
5.783
 20
-0.461
 21
-2.598
  0
LINE
  8
0
 10
5.783
 11
-0.642
 20
-2.598
 21
-6.308
  0
LINE
  8
0
 10
-0.642
 11
-3.11
 20
-6.308
 21
-6.308
  0
LINE
  8
0
 10
-3.11
 11
-3.109
 20
-6.308
 21
-6.306
  0
LINE
  8
0
 10
-3.109
 11
-3.217
 20
-6.306
 21
-6.296
  0
LINE
  8
0
 10
-3.217
 11
-3.337
 20
-6.296
 21
-6.27
  0
LINE
  8
0
 10
-3.337
 11
-3.454
 20
-6.27
 21
-6.229
  0
LINE
  8
0
 10
-3.454
 11
-3.565
 20
-6.229
 21
-6.175
  0
LINE
  8
0
 10
-3.565
 11
-3.668
 20
-6.175
 21
-6.106
  0
LINE
  8
0
 10
-3.668
 11
-3.762
 20
-6.106
 21
-6.025
  0
LINE
  8
0
 10
-3.762
 11
-3.844
 20
-6.025
 21
-5.934
  0
LINE
  8
0
 10
-3.844
 11
-3.907
 20
-5.934
 21
-5.845
  0
LINE
  8
0
 10
-3.907
 11
-3.908
 20
-5.845
 21
-5.847
  0
LINE
  8
0
 10
-3.908
 11
-5.142
 20
-5.847
 21
-3.709
  0
LINE
  8
0
 10
-3.405
 11
-3.404
 20
-5.632
 21
-5.613
  0
LINE
  8
0
 10
-3.404
 11
-3.402
 20
-5.613
 21
-5.593
  0
LINE
  8
0
 10
-3.402
 11
-3.397
 20
-5.593
 21
-5.574
  0
LINE
  8
0
 10
-3.397
 11
-3.389
 20
-5.574
 21
-5.556
  0
LINE
  8
0
 10
-3.389
 11
-3.379
 20
-5.556
 21
-5.539
  0
LINE
  8
0
 10
-3.379
 11
-3.367
 20
-5.539
 21
-5.522
  0
LINE
  8
0
 10
-3.367
 11
-3.353
 20
-5.522
 21
-5.508
  0
LINE
  8
0
 10
-3.353
 11
-3.321
 20
-5.508
 21
-5.486
  0
LINE
  8
0
 10
-3.321
 11
-3.303
 20
-5.486
 21
-5.479
  0
LINE
  8
0
 10
-3.303
 11
-3.284
 20
-5.479
 21
-5.472
  0
LINE
  8
0
 10
-3.284
 11
-3.265
 20
-5.472
 21
-5.469
  0
LINE
  8
0
 10
-3.265
 11
-3.245
 20
-5.469
 21
-5.468
  0
LINE
  8
0
 10
-3.245
 11
-3.225
 20
-5.468
 21
-5.47
  0
LINE
  8
0
 10
-3.225
 11
-3.205
 20
-5.47
 21
-5.474
  0
LINE
  8
0
 10
-3.205
 11
-3.187
 20
-5.474
 21
-5.481
  0
LINE
  8
0
 10
-3.187
 11
-3.169
 20
-5.481
 21
-5.49
  0
LINE
  8
0
 10
-3.169
 11
-3.153
 20
-5.49
 21
-5.501
  0
LINE
  8
0
 10
-3.153
 11
-3.138
 20
-5.501
 21
-5.513
  0
LINE
  8
0
 10
-3.138
 11
-3.125
 20
-5.513
 21
-5.528
  0
LINE
  8
0
 10
-3.125
 11
-3.113
 20
-5.528
 21
-5.544
  0
LINE
  8
0
 10
-3.113
 11
-3.104
 20
-5.544
 21
-5.562
  0
LINE
  8
0
 10
-3.104
 11
-3.097
 20
-5.562
 21
-5.58
  0
LINE
  8
0
 10
-3.097
 11
-3.093
 20
-5.58
 21
-5.6
  0
LINE
  8
0
 10
-3.093
 11
-3.091
 20
-5.6
 21
-5.619
  0
LINE
  8
0
 10
-3.091
 11
-3.092
 20
-5.619
 21
-5.639
  0
LINE
  8
0
 10
-3.092
 11
-3.094
 20
-5.639
 21
-5.658
  0
LINE
  8
0
 10
-3.094
 11
-3.099
 20
-5.658
 21
-5.677
  0
LINE
  8
0
 10
-3.099
 11
-3.107
 20
-5.677
 21
-5.696
  0
LINE
  8
0
 10
-3.107
 11
-3.117
 20
-5.696
 21
-5.713
  0
LINE
  8
0
 10
-3.117
 11
-3.129
 20
-5.713
 21
-5.729
  0
LINE
  8
0
 10
-3.129
 11
-3.143
 20
-5.729
 21
-5.743
  0
LINE
  8
0
 10
-3.143
 11
-3.159
 20
-5.743
 21
-5.755
  0
LINE
  8
0
 10
-3.159
 11
-3.175
 20
-5.755
 21
-5.765
  0
LINE
  8
0
 10
-3.175
 11
-3.193
 20
-5.765
 21
-5.773
  0
LINE
  8
0
 10
-3.193
 11
-3.212
 20
-5.773
 21
-5.779
  0
LINE
  8
0
 10
-3.212
 11
-3.231
 20
-5.779
 21
-5.782
  0
LINE
  8
0
 10
-3.231
 11
-3.251
 20
-5.782
 21
-5.783
  0
LINE
  8
0
 10
-3.251
 11
-3.271
 20
-5.783
 21
-5.781
  0
LINE
  8
0
 10
-3.271
 11
-3.291
 20
-5.781
 21
-5.778
  0
LINE
  8
0
 10
-3.291
 11
-3.309
 20
-5.778
 21
-5.771
  0
LINE
  8
0
 10
-3.309
 11
-3.326
 20
-5.771
 21
-5.762
  0
LINE
  8
0
 10
-3.326
 11
-3.343
 20
-5.762
 21
-5.751
  0
LINE
  8
0
 10
-3.343
 11
-3.358
 20
-5.751
 21
-5.739
  0
LINE
  8
0
 10
-3.358
 11
-3.371
 20
-5.739
 21
-5.723
  0
LINE
  8
0
 10
-3.371
 11
-3.383
 20
-5.723
 21
-5.707
  0
LINE
  8
0
 10
-3.383
 11
-3.392
 20
-5.707
 21
-5.689
  0
LINE
  8
0
 10
-3.392
 11
-3.399
 20
-5.689
 21
-5.671
  0
LINE
  8
0
 10
-3.399
 11
-3.403
 20
-5.671
 21
-5.652
  0
LINE
  8
0
 10
-3.403
 11
-3.405
 20
-5.652
 21
-5.632
  0
LINE
  8
0
 10
-3.405
 11
-3.403
 20
5.632
 21
5.652
  0
LINE
  8
0
 10
-3.403
 11
-3.399
 20
5.652
 21
5.671
  0
LINE
  8
0
 10
-3.399
 11
-3.392
 20
5.671
 21
5.689
  0
LINE
  8
0
 10
-3.392
 11
-3.383
 20
5.689
 21
5.707
  0
LINE
  8
0
 10
-3.383
 11
-3.371
 20
5.707
 21
5.723
  0
LINE
  8
0
 10
-3.371
 11
-3.358
 20
5.723
 21
5.739
  0
LINE
  8
0
 10
-3.358
 11
-3.343
 20
5.739
 21
5.751
  0
LINE
  8
0
 10
-3.343
 11
-3.326
 20
5.751
 21
5.762
  0
LINE
  8
0
 10
-3.326
 11
-3.309
 20
5.762
 21
5.771
  0
LINE
  8
0
 10
-3.309
 11
-3.291
 20
5.771
 21
5.778
  0
LINE
  8
0
 10
-3.291
 11
-3.271
 20
5.778
 21
5.781
  0
LINE
  8
0
 10
-3.271
 11
-3.251
 20
5.781
 21
5.783
  0
LINE
  8
0
 10
-3.251
 11
-3.231
 20
5.783
 21
5.782
  0
LINE
  8
0
 10
-3.231
 11
-3.212
 20
5.782
 21
5.779
  0
LINE
  8
0
 10
-3.212
 11
-3.193
 20
5.779
 21
5.773
  0
LINE
  8
0
 10
-3.193
 11
-3.175
 20
5.773
 21
5.765
  0
LINE
  8
0
 10
-3.175
 11
-3.159
 20
5.765
 21
5.755
  0
LINE
  8
0
 10
-3.159
 11
-3.143
 20
5.755
 21
5.743
  0
LINE
  8
0
 10
-3.143
 11
-3.129
 20
5.743
 21
5.729
  0
LINE
  8
0
 10
-3.129
 11
-3.117
 20
5.729
 21
5.713
  0
LINE
  8
0
 10
-3.117
 11
-3.107
 20
5.713
 21
5.696
  0
LINE
  8
0
 10
-3.107
 11
-3.099
 20
5.696
 21
5.677
  0
LINE
  8
0
 10
-3.099
 11
-3.094
 20
5.677
 21
5.658
  0
LINE
  8
0
 10
-3.094
 11
-3.092
 20
5.658
 21
5.639
  0
LINE
  8
0
 10
-3.092
 11
-3.091
 20
5.639
 21
5.619
  0
LINE
  8
0
 10
-3.091
 11
-3.093
 20
5.619
 21
5.6
  0
LINE
  8
0
 10
-3.093
 11
-3.097
 20
5.6
 21
5.58
  0
LINE
  8
0
 10
-3.097
 11
-3.104
 20
5.58
 21
5.562
  0
LINE
  8
0
 10
-3.104
 11
-3.113
 20
5.562
 21
5.544
  0
LINE
  8
0
 10
-3.113
 11
-3.125
 20
5.544
 21
5.528
  0
LINE
  8
0
 10
-3.125
 11
-3.138
 20
5.528
 21
5.513
  0
LINE
  8
0
 10
-3.138
 11
-3.153
 20
5.513
 21
5.501
  0
LINE
  8
0
 10
-3.153
 11
-3.169
 20
5.501
 21
5.49
  0
LINE
  8
0
 10
-3.169
 11
-3.187
 20
5.49
 21
5.481
  0
LINE
  8
0
 10
-3.187
 11
-3.205
 20
5.481
 21
5.474
  0
LINE
  8
0
 10
-3.205
 11
-3.225
 20
5.474
 21
5.47
  0
LINE
  8
0
 10
-3.225
 11
-3.245
 20
5.47
 21
5.468
  0
LINE
  8
0
 10
-3.245
 11
-3.265
 20
5.468
 21
5.469
  0
LINE
  8
0
 10
-3.265
 11
-3.284
 20
5.469
 21
5.472
  0
LINE
  8
0
 10
-3.284
 11
-3.303
 20
5.472
 21
5.479
  0
LINE
  8
0
 10
-3.303
 11
-3.321
 20
5.479
 21
5.486
  0
LINE
  8
0
 10
-3.321
 11
-3.353
 20
5.486
 21
5.508
  0
LINE
  8
0
 10
-3.353
 11
-3.367
 20
5.508
 21
5.522
  0
LINE
  8
0
 10
-3.367
 11
-3.379
 20
5.522
 21
5.539
  0
LINE
  8
0
 10
-3.379
 11
-3.389
 20
5.539
 21
5.556
  0
LINE
  8
0
 10
-3.389
 11
-3.397
 20
5.556
 21
5.574
  0
LINE
  8
0
 10
-3.397
 11
-3.402
 20
5.574
 21
5.593
  0
LINE
  8
0
 10
-3.402
 11
-3.404
 20
5.593
 21
5.613
  0
LINE
  8
0
 10
-3.404
 11
-3.405
 20
5.613
 21
5.632
  0
LINE
  8
0
 10
6.339
 11
6.34
 20
0
 21
0.02
  0
LINE
  8
0
 10
6.34
 11
6.343
 20
0.02
 21
0.039
  0
LINE
  8
0
 10
6.343
 11
6.35
 20
0.039
 21
0.058
  0
LINE
  8
0
 10
6.35
 11
6.358
 20
0.058
 21
0.076
  0
LINE
  8
0
 10
6.358
 11
6.369
 20
0.076
 21
0.093
  0
LINE
  8
0
 10
6.369
 11
6.381
 20
0.093
 21
0.108
  0
LINE
  8
0
 10
6.381
 11
6.396
 20
0.108
 21
0.121
  0
LINE
  8
0
 10
6.396
 11
6.412
 20
0.121
 21
0.133
  0
LINE
  8
0
 10
6.412
 11
6.429
 20
0.133
 21
0.142
  0
LINE
  8
0
 10
6.429
 11
6.447
 20
0.142
 21
0.15
  0
LINE
  8
0
 10
6.447
 11
6.466
 20
0.15
 21
0.155
  0
LINE
  8
0
 10
6.466
 11
6.486
 20
0.155
 21
0.157
  0
LINE
  8
0
 10
6.486
 11
6.506
 20
0.157
 21
0.157
  0
LINE
  8
0
 10
6.506
 11
6.526
 20
0.157
 21
0.155
  0
LINE
  8
0
 10
6.526
 11
6.545
 20
0.155
 21
0.15
  0
LINE
  8
0
 10
6.545
 11
6.563
 20
0.15
 21
0.142
  0
LINE
  8
0
 10
6.563
 11
6.58
 20
0.142
 21
0.133
  0
LINE
  8
0
 10
6.58
 11
6.596
 20
0.133
 21
0.121
  0
LINE
  8
0
 10
6.596
 11
6.611
 20
0.121
 21
0.108
  0
LINE
  8
0
 10
6.611
 11
6.623
 20
0.108
 21
0.093
  0
LINE
  8
0
 10
6.623
 11
6.634
 20
0.093
 21
0.076
  0
LINE
  8
0
 10
6.634
 11
6.642
 20
0.076
 21
0.058
  0
LINE
  8
0
 10
6.642
 11
6.649
 20
0.058
 21
0.039
  0
LINE
  8
0
 10
6.649
 11
6.652
 20
0.039
 21
0.02
  0
LINE
  8
0
 10
6.652
 11
6.653
 20
0.02
 21
0
  0
LINE
  8
0
 10
6.653
 11
6.652
 20
0
 21
-0.02
  0
LINE
  8
0
 10
6.652
 11
6.649
 20
-0.02
 21
-0.039
  0
LINE
  8
0
 10
6.649
 11
6.642
 20
-0.039
 21
-0.058
  0
LINE
  8
0
 10
6.642
 11
6.634
 20
-0.058
 21
-0.076
  0
LINE
  8
0
 10
6.634
 11
6.623
 20
-0.076
 21
-0.093
  0
LINE
  8
0
 10
6.623
 11
6.611
 20
-0.093
 21
-0.108
  0
LINE
  8
0
 10
6.611
 11
6.596
 20
-0.108
 21
-0.121
  0
LINE
  8
0
 10
6.596
 11
6.58
 20
-0.121
 21
-0.133
  0
LINE
  8
0
 10
6.58
 11
6.563
 20
-0.133
 21
-0.142
  0
LINE
  8
0
 10
6.563
 11
6.545
 20
-0.142
 21
-0.15
  0
LINE
  8
0
 10
6.545
 11
6.526
 20
-0.15
 21
-0.155
  0
LINE
  8
0
 10
6.526
 11
6.506
 20
-0.155
 21
-0.157
  0
LINE
  8
0
 10
6.506
 11
6.486
 20
-0.157
 21
-0.157
  0
LINE
  8
0
 10
6.486
 11
6.466
 20
-0.157
 21
-0.155
  0
LINE
  8
0
 10
6.466
 11
6.447
 20
-0.155
 21
-0.15
  0
LINE
  8
0
 10
6.447
 11
6.429
 20
-0.15
 21
-0.142
  0
LINE
  8
0
 10
6.429
 11
6.412
 20
-0.142
 21
-0.133
  0
LINE
  8
0
 10
6.412
 11
6.396
 20
-0.133
 21
-0.121
  0
LINE
  8
0
 10
6.396
 11
6.381
 20
-0.121
 21
-0.108
  0
LINE
  8
0
 10
6.381
 11
6.369
 20
-0.108
 21
-0.093
  0
LINE
  8
0
 10
6.369
 11
6.358
 20
-0.093
 21
-0.076
  0
LINE
  8
0
 10
6.358
 11
6.35
 20
-0.076
 21
-0.058
  0
LINE
  8
0
 10
6.35
 11
6.343
 20
-0.058
 21
-0.039
  0
LINE
  8
0
 10
6.343
 11
6.34
 20
-0.039
 21
-0.02
  0
LINE
  8
0
 10
6.34
 11
6.339
 20
-0.02
 21
0
  0
ENDSEC
  0
SECTION
  2
OBJECTS
  0
DICTIONARY
  0
ENDSEC
  0
EOF
